<svg width="17" height="17" fill="none" xmlns="http://www.w3.org/2000/svg"><path d="M7.694 1.1a1 1 0 011.612 0l1.35 1.84a1 1 0 00.847.408l2.28-.093a1 1 0 011.006 1.261L14.19 6.72a1 1 0 00.21.916l1.494 1.726a1 1 0 01-.36 1.572l-2.094.906a1 1 0 00-.586.735l-.418 2.244a1 1 0 01-1.452.7L8.97 14.445a1 1 0 00-.94 0l-2.014 1.073a1 1 0 01-1.454-.7l-.417-2.244a1 1 0 00-.586-.735l-2.095-.906a1 1 0 01-.358-1.572l1.493-1.726a1 1 0 00.21-.916L2.21 4.516a1 1 0 011.006-1.26l2.28.092a1 1 0 00.847-.408l1.35-1.84z" fill="#fff"/><path d="M5.403 12l4.724-6.918h.968L6.372 12h-.969zm.573-3.192a1.59 1.59 0 01-.86-.237 1.586 1.586 0 01-.582-.662 2.25 2.25 0 01-.208-.998c0-.383.07-.715.208-.999a1.58 1.58 0 01.583-.662c.25-.158.537-.237.86-.237.335 0 .625.08.87.237.25.158.444.38.582.662.139.284.208.616.208.999 0 .382-.07.714-.208.998a1.587 1.587 0 01-.583.662 1.563 1.563 0 01-.87.237zm.01-.692A.708.708 0 006.6 7.81c.152-.21.227-.51.227-.9 0-.388-.075-.685-.227-.889a.7.7 0 00-.613-.316.751.751 0 00-.632.316c-.152.211-.227.507-.227.89 0 .382.075.678.227.889.158.21.369.316.632.316zm4.526 3.953a1.58 1.58 0 01-.86-.237 1.586 1.586 0 01-.582-.662 2.25 2.25 0 01-.208-.998c0-.382.07-.715.208-.998.138-.284.332-.504.583-.662.25-.159.537-.238.86-.238.335 0 .625.08.87.238.25.158.444.378.582.662.139.283.208.616.208.998s-.07.715-.208.998a1.586 1.586 0 01-.583.662 1.563 1.563 0 01-.87.237zm0-.692a.726.726 0 00.623-.316c.152-.21.227-.507.227-.89 0-.381-.075-.678-.227-.889a.726.726 0 00-.623-.316.742.742 0 00-.622.316c-.152.205-.227.501-.227.89 0 .388.075.688.227.9a.75.75 0 00.622.305z" fill="#F04438"/></svg>