<svg width="13" height="13" fill="none" xmlns="http://www.w3.org/2000/svg"><path fill-rule="evenodd" clip-rule="evenodd" d="M3.9 0C2.703 0 1.733.97 1.733 2.167v.247c0 .389.116.75.314 1.053H1.3a1.3 1.3 0 00-1.3 1.3v.866a1.3 1.3 0 001.3 1.3h4.767V3.467h.866v3.466H11.7a1.3 1.3 0 001.3-1.3v-.866a1.3 1.3 0 00-1.3-1.3h-.747a1.91 1.91 0 00.314-1.053v-.247C11.267.97 10.297 0 9.1 0 7.997 0 7.03.59 6.5 1.47A3.032 3.032 0 003.9 0zm3.033 3.467h2.415c.58 0 1.052-.472 1.052-1.053v-.247a1.3 1.3 0 00-1.3-1.3c-1.197 0-2.167.97-2.167 2.166v.434zm-.866 0H3.652A1.052 1.052 0 012.6 2.414v-.247a1.3 1.3 0 011.3-1.3c1.197 0 2.167.97 2.167 2.166v.434z" fill="#fff"/><path d="M6.067 7.8h-5.2v3.033c0 1.197.97 2.167 2.166 2.167h3.034V7.8zm.866 5.2h3.034c1.196 0 2.166-.97 2.166-2.167V7.8h-5.2V13z" fill="#fff"/></svg>