<svg width="13" height="15" fill="none" xmlns="http://www.w3.org/2000/svg"><path d="M5 6.496a1.5 1.5 0 013 0 1.5 1.5 0 01-3 0z" fill="#E6C79E"/><path fill-rule="evenodd" clip-rule="evenodd" d="M0 6.496A6.499 6.499 0 016.5 0C10.089 0 13 2.909 13 6.496c0 2.674-1.338 4.793-2.772 6.225a10.866 10.866 0 01-2.115 1.654c-.322.19-.623.34-.885.442-.247.098-.506.174-.728.174-.222 0-.481-.076-.728-.174a6.453 6.453 0 01-.885-.442 10.868 10.868 0 01-2.115-1.654C1.338 11.289 0 9.17 0 6.496zm6.5-2.499a2.5 2.5 0 00-2.5 2.5 2.5 2.5 0 005 0 2.5 2.5 0 00-2.5-2.5z" fill="#E6C79E"/></svg>