<svg width="68" height="32" fill="none" xmlns="http://www.w3.org/2000/svg"><path d="M64.876 2.24c-3.71-3.548-10.967-2.903-13.224 2.096 1.774-2.903 5.644-4.032 8.87-3.064 4.193 1.129 6.128 5.483 5.805 9.515-.968 6.45-6.934 10.16-13.224 10.32-7.74.162-14.192-4.353-20.159-8.546-6.128-4.193-12.901-8.225-20.642-7.419C5.69 5.787-.599 10.626.046 17.722c.483 8.87 8.87 14.19 17.094 13.546-7.58-.161-15.482-5.16-15.32-13.547-.323-7.902 8.386-10.966 14.836-9.837 7.258 1.29 12.902 6.45 18.869 10.321 6.128 3.87 13.546 6.935 20.965 5 5.967-1.613 10.805-5.967 11.45-12.418.322-3.064-.645-6.29-3.064-8.548 1.129.968-.968-.967 0 0z" fill="#E6C79E"/><path d="M64.876 25.301c-10.16 8.225-22.416.161-31.286-5.805-4.838-3.226-10.16-6.451-16.127-6.774-4.999-.322-10.805 1.29-13.385 6.128 3.548-4.354 9.676-4.838 14.837-3.548 6.29 1.613 11.289 5.968 16.61 9.515 5.322 3.548 11.29 6.29 17.74 6.129 5.322-.162 10.805-2.742 13.385-7.58-.483.645-1.129 1.29-1.774 1.935.645-.645-.645.484 0 0z" fill="#E6C79E"/></svg>