<svg width="20" height="12" fill="none" xmlns="http://www.w3.org/2000/svg"><path d="M18.835 10.335c0-.072-.072-.072-.072-.144-.287-.574-.932-1.291-1.793-2.08-.43-.359-.645-.646-.789-.79-.215-.286-.215-.501-.143-.788.071-.215.358-.574.86-1.22.287-.358.43-.574.646-.789 1.076-1.434 1.578-2.367 1.434-2.797l-.071-.072c-.072-.072-.144-.144-.287-.144-.144-.071-.359-.071-.574 0h-3.228l-.072.072c-.071.072-.071.072-.071.144-.287.789-.646 1.434-1.004 2.152-.216.358-.43.717-.646 1.004-.215.287-.359.502-.502.646-.143.143-.287.215-.359.358-.071.072-.215.144-.215.072-.072 0-.143 0-.143-.072l-.215-.215c-.072-.072-.072-.215-.144-.359V1.727c0-.072-.072-.216-.072-.287l-.215-.216c-.072-.071-.215-.071-.287-.143a6.433 6.433 0 00-1.29-.143c-1.149 0-1.938.071-2.225.215-.143.071-.286.143-.358.287-.144.143-.144.215-.072.215.359.072.646.215.79.43l.07.144c.073.071.073.215.144.43.072.215.072.43.072.717v1.148c0 .359-.072.574-.072.79 0 .215-.071.358-.143.43-.072.143-.072.215-.144.215 0 0 0 .072-.071.072-.072 0-.144.071-.287.071A.544.544 0 017 5.96a.864.864 0 01-.36-.36c-.143-.143-.287-.358-.43-.645-.144-.287-.359-.574-.502-1.005l-.144-.287a10.15 10.15 0 01-.358-.789c-.144-.358-.287-.645-.43-1.004a.99.99 0 00-.216-.287h-.07s-.071-.072-.143-.072-.144-.071-.215-.071H1.548c-.286 0-.43.071-.502.143l-.071.072v.143c0 .072 0 .144.071.287.359.861.79 1.722 1.22 2.583.43.789.86 1.506 1.147 2.008.359.502.646 1.005 1.005 1.435.358.43.573.717.645.86l.287.288.215.215c.144.143.359.359.646.574.287.215.645.43 1.004.645.359.216.789.36 1.22.502.502.144.932.216 1.362.144h1.076a.651.651 0 00.502-.215l.072-.072c0-.072.072-.072.072-.143v-.287c0-.287 0-.502.072-.718.071-.215.071-.358.143-.502a.992.992 0 01.215-.287l.144-.143h.071c.144-.072.359 0 .502.143.216.144.43.359.574.574.144.215.359.43.646.717.287.287.502.503.645.574l.215.144c.144.071.287.143.503.215.215.072.358.072.502.072l2.438-.072c.216 0 .43-.072.574-.144.144-.071.215-.143.215-.286v-.287c-.143-.144-.143-.216-.143-.287z" fill="#E6C79E"/></svg>