<svg width="16" height="12" fill="none" xmlns="http://www.w3.org/2000/svg"><path d="M16 4.975c0-.336-.055-.727-.055-1.173a76.304 76.304 0 00-.168-1.285c-.111-.447-.279-.782-.614-1.061-.28-.28-.67-.447-1.061-.503C12.817.785 10.918.729 8.349.729c-2.57 0-4.524.056-5.753.224-.39.056-.782.223-1.061.503a2.23 2.23 0 00-.614 1.06 4.478 4.478 0 00-.168 1.286 9.068 9.068 0 00-.056 1.173v2.569c0 .335.056.726.056 1.173.056.447.112.894.168 1.285.111.447.279.782.614 1.061.28.28.67.447 1.061.503 1.285.167 3.184.223 5.753.223 2.57 0 4.524-.056 5.753-.223.39-.056.782-.224 1.061-.503.28-.28.503-.614.614-1.061.112-.391.168-.782.168-1.285A9.06 9.06 0 0016 7.544V4.975zm-4.69 1.731L6.896 9.443a.427.427 0 01-.28.112c-.111 0-.167 0-.279-.056a.587.587 0 01-.279-.503v-5.53c0-.223.112-.39.28-.502a.507.507 0 01.558 0L11.309 5.7c.168.111.28.279.28.447 0 .167-.112.446-.28.558z" fill="#E6C79E"/></svg>